<?xml version="1.0" encoding="UTF-8"?>
<svg version="1.1" viewBox="0 0 1000 1000" width="1280" height="1280" xmlns="http://www.w3.org/2000/svg">
<path transform="translate(589)" d="m0 0h24l21 3 15 4 22 9 17 10 13 10 13 12 11 13 10 15 8 16 6 15 5 20 2 16v24l-3 21-6 21-9 20-10 16-8 10 6 7 97 97-2 4-19 19-4-2-101-101-5 2-14 9-11 6h-3v704h-158v-284h-207v284h-155v-899h312l3-9 8-16 8-12 8-10 11-12 13-11 15-10 16-8 18-7 18-4zm1 26-19 3-16 5-21 10-16 12-8 7-7 8-10 13-11 21-6 19-3 18v24l3 19 6 18 8 16 7 11 11 13 9 9 15 11 19 10 18 6 16 3 19 1 21-2 19-5 18-8 16-10 12-11 11-11 11-16 8-16 6-17 3-16 1-21-2-19-5-19-7-16-6-11-9-12-9-10-7-7-17-12-15-8-21-7-20-3zm-338 145v152h124v-152zm0 177v152h124v-152zm179 0v152h124v-152zm-179 177v152h124v-152zm179 0v152h124v-152z"/>
</svg>
