<?xml version="1.0" encoding="UTF-8"?>
<svg version="1.1" viewBox="0 0 1000 1000" width="1280" height="1280" xmlns="http://www.w3.org/2000/svg">
<path transform="translate(584)" d="m0 0h37l23 4 23 8 13 7 16 10 6 5 5 3 13 12 7 9 12 17 8 14 5 11 6 18 3 16 1 7v37l-4 22-5 16-7 16-7 12-10 14-3 5 106 106-2 4-21 21-7-6-100-100-5 1-14 9-20 10-1 692h-518v-899l310-1 4-10 8-15 10-14 9-10 7-8 14-12 22-14 15-7 19-6zm10 26-21 3-18 5-19 9-17 12-7 7-5 4-7 8-10 14-10 18-5 14-4 19-1 10v19l3 21 7 21 9 17 8 11 3 5 9 10 7 7 5 4 7 4 13 8 14 7 20 6 13 2h30l17-3 17-5 24-13 12-9 10-9 7-8 10-13 11-21 5-16 4-20v-31l-3-17-7-21-8-15-5-9-8-10-8-7-7-7h-2l-2-4-10-7-16-8-14-6-16-4-17-2zm-419 107v834h125v-252h208v252h124v-650l-11 1h-36l-18-3-9-3h-4v11h-123v-151h12l1-31 1-8z" fill="#3C60F3"/>
<path transform="translate(252,525)" d="m0 0h123l1 1v150h-124z" fill="#3C60F3"/>
<path transform="translate(253,348)" d="m0 0h122l1 1v150h-124v-150z" fill="#3C60F3"/>
<path transform="translate(252,172)" d="m0 0h124v150l-1 1h-122l-1-1z" fill="#3C60F3"/>
<path transform="translate(431,525)" d="m0 0h123v151h-123z" fill="#3C60F3"/>
<path transform="translate(431,348)" d="m0 0h123v151h-123z" fill="#3C60F3"/>
</svg>
